# xmcd
#
# Track frame offsets:
#	150
#	17272
#	34737
#	51965
#	78820
#	91475
#	116442
#	148725
#	163085
#	189307
#	208200
#	224265
# Disc length: 3260 seconds
# Revision: 3
# Processed by: cddbd v1.5.1PL2 Copyright (c) Steve Scherf et al.
#
# Submitted via: libkcddb 0.31
#
DISCID=9f0cba0c
DTITLE=Natasha - Natasha
DYEAR=1991
DGENRE=Blues
TTITLE0=Nightbird
TTITLE1=Nothing At All
TTITLE2=Open Up The Door
TTITLE3=The Night Is A Hunter
TTITLE4=Just A Little Bit
TTITLE5=Endless Game
TTITLE6=Born In Chicago
TTITLE7=Tell Me What You're Gonna Do
TTITLE8=Seven Angels
TTITLE9=High Cost Of Loving
TTITLE10=Wrong Kind Of Man
TTITLE11=Walking By Myself
EXTD=
EXTT0=
EXTT1=
EXTT2=
EXTT3=
EXTT4=
EXTT5=
EXTT6=
EXTT7=
EXTT8=
EXTT9=
EXTT10=
EXTT11=
PLAYORDER=
